<mxfile host="app.diagrams.net" agent="Mozilla/5.0 (Windows NT 10.0; Win64; x64) AppleWebKit/537.36 (KHTML, like Gecko) Chrome/136.0.0.0 Safari/537.36 Edg/136.0.0.0" version="27.0.5">
  <diagram name="Page-1" id="gtF86d2Yf04ySMRj77Ap">
    <mxGraphModel dx="2938" dy="3498" grid="1" gridSize="10" guides="1" tooltips="1" connect="1" arrows="1" fold="1" page="1" pageScale="1" pageWidth="827" pageHeight="1169" math="0" shadow="0">
      <root>
        <mxCell id="0" />
        <mxCell id="1" parent="0" />
        <mxCell id="Zn8mYaEwA6EY-k9Sd_vz-1" value="&lt;font style=&quot;font-size: 33px;&quot;&gt;FarmAhead&lt;/font&gt;" style="rounded=1;whiteSpace=wrap;html=1;align=center;" parent="1" vertex="1">
          <mxGeometry x="91" y="-2180" width="349.5" height="60" as="geometry" />
        </mxCell>
        <mxCell id="Zn8mYaEwA6EY-k9Sd_vz-4" value="&lt;font style=&quot;font-size: 14px;&quot;&gt;stald&amp;nbsp;&lt;/font&gt;" style="rounded=1;whiteSpace=wrap;html=1;fontSize=33;align=center;" parent="1" vertex="1">
          <mxGeometry x="91" y="-2040" width="170" height="33" as="geometry" />
        </mxCell>
        <mxCell id="Zn8mYaEwA6EY-k9Sd_vz-5" style="edgeStyle=orthogonalEdgeStyle;rounded=0;orthogonalLoop=1;jettySize=auto;html=1;exitX=1;exitY=0.5;exitDx=0;exitDy=0;" parent="1" source="Zn8mYaEwA6EY-k9Sd_vz-6" target="Zn8mYaEwA6EY-k9Sd_vz-20" edge="1">
          <mxGeometry relative="1" as="geometry" />
        </mxCell>
        <mxCell id="Zn8mYaEwA6EY-k9Sd_vz-6" value="&lt;font style=&quot;font-size: 14px;&quot;&gt;fordøjelse&lt;/font&gt;" style="rounded=1;whiteSpace=wrap;html=1;fontSize=33;fillColor=#dae8fc;strokeColor=#6c8ebf;align=center;verticalAlign=bottom;" parent="1" vertex="1">
          <mxGeometry x="91" y="-2007" width="349.5" height="33" as="geometry" />
        </mxCell>
        <mxCell id="Zn8mYaEwA6EY-k9Sd_vz-7" style="edgeStyle=orthogonalEdgeStyle;rounded=0;orthogonalLoop=1;jettySize=auto;html=1;exitX=1;exitY=0.5;exitDx=0;exitDy=0;" parent="1" source="Zn8mYaEwA6EY-k9Sd_vz-8" target="Zn8mYaEwA6EY-k9Sd_vz-20" edge="1">
          <mxGeometry relative="1" as="geometry" />
        </mxCell>
        <mxCell id="Zn8mYaEwA6EY-k9Sd_vz-8" value="&lt;font style=&quot;font-size: 14px;&quot;&gt;indkøbt foder&lt;/font&gt;" style="rounded=1;whiteSpace=wrap;html=1;fontSize=33;fillColor=#dae8fc;strokeColor=#6c8ebf;align=center;verticalAlign=bottom;" parent="1" vertex="1">
          <mxGeometry x="91" y="-1974" width="349.5" height="33" as="geometry" />
        </mxCell>
        <mxCell id="Zn8mYaEwA6EY-k9Sd_vz-9" style="edgeStyle=orthogonalEdgeStyle;rounded=0;orthogonalLoop=1;jettySize=auto;html=1;exitX=1;exitY=0.5;exitDx=0;exitDy=0;" parent="1" source="Zn8mYaEwA6EY-k9Sd_vz-10" target="Zn8mYaEwA6EY-k9Sd_vz-20" edge="1">
          <mxGeometry relative="1" as="geometry" />
        </mxCell>
        <mxCell id="Zn8mYaEwA6EY-k9Sd_vz-10" value="&lt;span style=&quot;font-size: 14px;&quot;&gt;indkøbte dyr&lt;/span&gt;" style="rounded=1;whiteSpace=wrap;html=1;fontSize=33;fillColor=#dae8fc;strokeColor=#6c8ebf;align=center;verticalAlign=bottom;" parent="1" vertex="1">
          <mxGeometry x="90.5" y="-1941" width="350" height="33" as="geometry" />
        </mxCell>
        <mxCell id="Zn8mYaEwA6EY-k9Sd_vz-11" style="edgeStyle=orthogonalEdgeStyle;rounded=0;orthogonalLoop=1;jettySize=auto;html=1;exitX=1;exitY=0.5;exitDx=0;exitDy=0;entryX=0;entryY=0.5;entryDx=0;entryDy=0;" parent="1" source="Zn8mYaEwA6EY-k9Sd_vz-12" target="Zn8mYaEwA6EY-k9Sd_vz-20" edge="1">
          <mxGeometry relative="1" as="geometry" />
        </mxCell>
        <mxCell id="Zn8mYaEwA6EY-k9Sd_vz-12" value="&lt;font style=&quot;font-size: 14px;&quot;&gt;stald og lager&lt;/font&gt;" style="rounded=1;whiteSpace=wrap;html=1;fontSize=33;fillColor=#dae8fc;strokeColor=#6c8ebf;align=center;verticalAlign=bottom;" parent="1" vertex="1">
          <mxGeometry x="91" y="-2040" width="349.5" height="33" as="geometry" />
        </mxCell>
        <mxCell id="Zn8mYaEwA6EY-k9Sd_vz-13" style="edgeStyle=orthogonalEdgeStyle;rounded=0;orthogonalLoop=1;jettySize=auto;html=1;exitX=0.5;exitY=1;exitDx=0;exitDy=0;" parent="1" edge="1">
          <mxGeometry relative="1" as="geometry">
            <mxPoint x="385.5" y="-1890" as="sourcePoint" />
            <mxPoint x="385.5" y="-1890" as="targetPoint" />
          </mxGeometry>
        </mxCell>
        <mxCell id="Zn8mYaEwA6EY-k9Sd_vz-14" value="&lt;br&gt;&lt;span style=&quot;color: rgb(0, 0, 0); font-family: Helvetica; font-style: normal; font-variant-ligatures: normal; font-variant-caps: normal; font-weight: 400; letter-spacing: normal; orphans: 2; text-align: left; text-indent: 0px; text-transform: none; widows: 2; word-spacing: 0px; -webkit-text-stroke-width: 0px; white-space: normal; text-decoration-thickness: initial; text-decoration-style: initial; text-decoration-color: initial; float: none; display: inline !important;&quot;&gt;Samlet CO2e-udledning fra malkekvægsbedriften&lt;/span&gt;&lt;div&gt;&lt;br&gt;&lt;/div&gt;" style="ellipse;whiteSpace=wrap;html=1;aspect=fixed;fillColor=#e1d5e7;strokeColor=#9673a6;labelBackgroundColor=none;labelBorderColor=none;fontSize=20;" parent="1" vertex="1">
          <mxGeometry x="1060" y="-2092.5" width="270" height="270" as="geometry" />
        </mxCell>
        <mxCell id="Zn8mYaEwA6EY-k9Sd_vz-15" value="&lt;font style=&quot;font-size: 33px;&quot;&gt;ESGreenTool&lt;/font&gt;" style="rounded=1;whiteSpace=wrap;html=1;align=center;" parent="1" vertex="1">
          <mxGeometry x="90" y="-1831" width="350" height="60" as="geometry" />
        </mxCell>
        <mxCell id="Zn8mYaEwA6EY-k9Sd_vz-16" value="&lt;font style=&quot;font-size: 14px;&quot;&gt;Beregnede produktaftryk (kg Co2e/kg FPCM)&lt;/font&gt;" style="rounded=1;whiteSpace=wrap;html=1;fontSize=33;fillColor=#1ba1e2;strokeColor=#006EAF;align=center;verticalAlign=bottom;fontColor=#ffffff;" parent="1" vertex="1">
          <mxGeometry x="91" y="-2100" width="349.5" height="33" as="geometry" />
        </mxCell>
        <mxCell id="Zn8mYaEwA6EY-k9Sd_vz-17" style="edgeStyle=orthogonalEdgeStyle;rounded=0;orthogonalLoop=1;jettySize=auto;html=1;" parent="1" source="Zn8mYaEwA6EY-k9Sd_vz-18" target="Zn8mYaEwA6EY-k9Sd_vz-14" edge="1">
          <mxGeometry relative="1" as="geometry" />
        </mxCell>
        <mxCell id="Zn8mYaEwA6EY-k9Sd_vz-18" value="&lt;font style=&quot;font-size: 14px;&quot;&gt;samlet udledning fra marken (inkl. hjemmeavlet foder og salgsafgrøder)&lt;/font&gt;" style="rounded=1;whiteSpace=wrap;html=1;fontSize=33;fillColor=#dae8fc;strokeColor=#6c8ebf;align=center;verticalAlign=bottom;" parent="1" vertex="1">
          <mxGeometry x="90.5" y="-1751" width="349.5" height="110" as="geometry" />
        </mxCell>
        <mxCell id="Zn8mYaEwA6EY-k9Sd_vz-19" style="edgeStyle=orthogonalEdgeStyle;rounded=0;orthogonalLoop=1;jettySize=auto;html=1;exitX=1;exitY=0.5;exitDx=0;exitDy=0;" parent="1" source="Zn8mYaEwA6EY-k9Sd_vz-20" target="Zn8mYaEwA6EY-k9Sd_vz-22" edge="1">
          <mxGeometry relative="1" as="geometry" />
        </mxCell>
        <mxCell id="Zn8mYaEwA6EY-k9Sd_vz-20" value="&lt;p style=&quot;line-height: 30%;&quot;&gt;&lt;span style=&quot;font-size: 14px;&quot;&gt;tilføjelse af kødets aftryk&lt;/span&gt;&lt;/p&gt;" style="rounded=1;whiteSpace=wrap;html=1;fontSize=33;fillColor=#cce5ff;strokeColor=#36393d;arcSize=9;align=center;verticalAlign=middle;" parent="1" vertex="1">
          <mxGeometry x="540.5" y="-1981.25" width="180" height="47.5" as="geometry" />
        </mxCell>
        <mxCell id="Zn8mYaEwA6EY-k9Sd_vz-21" style="edgeStyle=orthogonalEdgeStyle;rounded=0;orthogonalLoop=1;jettySize=auto;html=1;exitX=1;exitY=0.5;exitDx=0;exitDy=0;entryX=0;entryY=0.5;entryDx=0;entryDy=0;" parent="1" source="Zn8mYaEwA6EY-k9Sd_vz-22" target="Zn8mYaEwA6EY-k9Sd_vz-14" edge="1">
          <mxGeometry relative="1" as="geometry" />
        </mxCell>
        <mxCell id="Zn8mYaEwA6EY-k9Sd_vz-22" value="&lt;p style=&quot;line-height: 30%;&quot;&gt;&lt;span style=&quot;font-size: 14px;&quot;&gt;gange med mængden af mælk&lt;/span&gt;&lt;br&gt;&lt;/p&gt;" style="rounded=1;whiteSpace=wrap;html=1;fontSize=33;fillColor=#cce5ff;strokeColor=#36393d;arcSize=9;align=center;verticalAlign=middle;" parent="1" vertex="1">
          <mxGeometry x="790.5" y="-1981.25" width="160" height="47.5" as="geometry" />
        </mxCell>
        <mxCell id="qw5N6StHO1SfH2oUPiOa-2" style="edgeStyle=orthogonalEdgeStyle;rounded=0;orthogonalLoop=1;jettySize=auto;html=1;exitX=1;exitY=0.5;exitDx=0;exitDy=0;" edge="1" parent="1" source="qw5N6StHO1SfH2oUPiOa-1" target="Zn8mYaEwA6EY-k9Sd_vz-14">
          <mxGeometry relative="1" as="geometry" />
        </mxCell>
        <mxCell id="qw5N6StHO1SfH2oUPiOa-1" value="&lt;font style=&quot;font-size: 14px;&quot;&gt;standard værdier for el og diesel&lt;/font&gt;" style="rounded=1;whiteSpace=wrap;html=1;fontSize=33;fillColor=#dae8fc;strokeColor=#6c8ebf;align=center;verticalAlign=bottom;" vertex="1" parent="1">
          <mxGeometry x="90" y="-1631" width="349.5" height="30" as="geometry" />
        </mxCell>
      </root>
    </mxGraphModel>
  </diagram>
</mxfile>
